<svg xmlns="http://www.w3.org/2000/svg" width="300" height="285" viewBox="0 0 300 285"><title>Figure 1.7 primitive reconstruction</title><rect width="300" height="285" fill="#fff"/><defs><style>.line{stroke:#111111;stroke-width:2.0;fill:none;stroke-linecap:square;stroke-linejoin:miter}.thin{stroke:#111111;stroke-width:0.95;fill:none;stroke-linecap:square}.dash{stroke:#111111;stroke-width:1.05;fill:none;stroke-dasharray:13 4;stroke-linecap:square}.open{fill:none;stroke:#111111;stroke-width:1.75}.dot{fill:#111111;stroke:none}.arrowhead{fill:#111111;stroke:none}.label{font-family:"Times New Roman",Times,serif;font-size:12px;fill:#111111;font-weight:500}.math{font-style:italic}.sub{font-size:8px;baseline-shift:sub}</style></defs>
<line class="dash" x1="15" y1="72" x2="255" y2="72"/>
<circle class="open" cx="142" cy="73" r="38.5"/>
<line class="line" x1="104" y1="72" x2="104" y2="211"/><line class="line" x1="180" y1="72" x2="180" y2="251"/><line class="thin" x1="104" y1="72" x2="180" y2="72"/><circle class="dot" cx="142" cy="72" r="2.5"/>
<line class="thin" x1="76" y1="72" x2="76" y2="236"/><polygon class="arrowhead" points="76.00,72.00 78.50,78.00 73.50,78.00"/><polygon class="arrowhead" points="76.00,236.00 73.50,230.00 78.50,230.00"/><line class="thin" x1="68" y1="236" x2="84" y2="236"/>
<line class="thin" x1="207" y1="72" x2="207" y2="279"/><polygon class="arrowhead" points="207.00,72.00 209.50,78.00 204.50,78.00"/><polygon class="arrowhead" points="207.00,279.00 204.50,273.00 209.50,273.00"/><line class="thin" x1="199" y1="279" x2="215" y2="279"/>
<rect class="open" x="91" y="211" width="27" height="27"/><rect class="open" x="167" y="251" width="27" height="27"/>
<text class="label math" x="72" y="155">x</text><text class="label math" x="196" y="177">l - x</text><text class="label math" x="97" y="228">M<tspan class="sub">1</tspan></text><text class="label math" x="172" y="273">M<tspan class="sub">2</tspan></text></svg>