<svg xmlns="http://www.w3.org/2000/svg" width="140" height="190" viewBox="0 0 140 190">
  <rect width="140" height="190" fill="#fff"/>
  <style>
    .axis { stroke:#111; stroke-width:2.3; fill:none; stroke-linecap:square; stroke-linejoin:miter; }
    .line { stroke:#111; stroke-width:4.2; fill:none; stroke-linecap:square; stroke-linejoin:miter; }
    .thin { stroke:#111; stroke-width:1.05; fill:none; stroke-linecap:square; stroke-linejoin:miter; }
    .dash { stroke:#111; stroke-width:3.0; fill:none; stroke-dasharray:8 4; stroke-linecap:round; }
    .label { font-family:"Times New Roman", Times, serif; font-size:20px; fill:#111; font-style:italic; }
    .sub { font-size:12.8px; baseline-shift:sub; }
  </style>
  <g transform="translate(20 23) scale(0.4)">
  <ellipse class="dash" cx="109" cy="130" rx="86" ry="31"/>

  <line class="axis" x1="109" y1="38" x2="109" y2="305"/>
  <line class="axis" x1="109" y1="305" x2="226" y2="304"/>
  <line class="axis" x1="109" y1="305" x2="82" y2="346"/>

  <line class="line" x1="109" y1="305" x2="109" y2="129"/>
  <line class="line" x1="109" y1="305" x2="184" y2="148"/>
  <polygon points="184,148 172,150 178,158" fill="#111"/>

  <line class="line" x1="109" y1="129" x2="184" y2="148"/>
  <polygon points="184,148 173,139 172,151" fill="#111"/>

  <line class="thin" x1="109" y1="129" x2="143" y2="166"/>
  <line class="line" x1="143" y1="166" x2="181" y2="148"/>
  <polygon points="181,148 168,148 174,157" fill="#111"/>

  <line class="line" x1="109" y1="108" x2="109" y2="73"/>
  <polygon points="109,73 104,86 114,86" fill="#111"/>

  <path class="thin" d="M 109 253 A 42 42 0 0 1 121 225"/>

  <text class="label" x="118" y="80">n</text>
  <text class="label" x="139" y="127">dq<tspan class="sub">j</tspan></text>
  <text class="label" x="139" y="171">dr<tspan class="sub">i</tspan></text>
  <text class="label" x="91" y="178">r<tspan class="sub">i</tspan>(q<tspan class="sub">j</tspan>)</text>
  <text class="label" x="162" y="211">r<tspan class="sub">i</tspan>(q<tspan class="sub">j</tspan> + dq<tspan class="sub">j</tspan>)</text>
  <text class="label" x="112" y="252">&#952;</text>
  </g>
</svg>
