<svg xmlns="http://www.w3.org/2000/svg" width="330" height="165" viewBox="0 0 330 165"><title>Figure 2.1 primitive reconstruction</title><rect width="330" height="165" fill="#fff"/><defs><style>.axis{stroke:#000000;stroke-width:.7;fill:none;stroke-linecap:square}.curve{stroke:#000000;stroke-width:1.7;fill:none;stroke-linecap:round;stroke-linejoin:round}.dot{fill:#000000;stroke:none}.label{font-family:"Times New Roman",Times,serif;font-size:8.5px;fill:#000000;font-style:italic}</style></defs><g transform="translate(91 2)"><line class="axis" x1="14.4" y1="8.4" x2="14.4" y2="155"/><line class="axis" x1="1.2" y1="145" x2="129.6" y2="145"/><path class="curve" d="M 31.0 129.0 L 34.0 117.0 L 40.0 104.0 L 52.0 85.0 L 68.0 77.0 L 86.0 66.0 L 101.0 52.0 L 113.0 38.0 L 119.0 31.0 L 124.0 23.0 L 127.0 15.0"/><path class="curve" d="M 52.0 87.0 L 54.0 77.0 L 61.0 71.0 L 65.0 60.0 L 68.0 47.0 L 78.0 40.0 L 88.0 40.0 L 94.0 42.0 L 100.0 39.0 L 110.0 38.0 L 113.0 38.0"/><path class="curve" d="M 113.0 38.0 L 118.0 44.0 L 116.0 53.0 L 122.0 62.0 L 121.0 70.0 L 114.0 76.0 L 105.0 78.0 L 101.0 89.0 L 92.0 95.0 L 80.0 99.0 L 67.0 97.0 L 58.0 93.0 L 52.0 87.0"/><circle class="dot" cx="52.2" cy="87" r="1.8"/><circle class="dot" cx="113.4" cy="38.4" r="1.8"/><text class="label" x="7.8" y="18">y</text><text class="label" x="125.4" y="148.8">x</text><text class="label" x="52.8" y="95.4">t<tspan style="font-size:6px;baseline-shift:sub">1</tspan></text><text class="label" x="116.4" y="43.2">t<tspan style="font-size:6px;baseline-shift:sub">2</tspan></text></g></svg>