<svg xmlns="http://www.w3.org/2000/svg" width="300" height="250" viewBox="0 0 300 250">
  <title>Figure 1.3 primitive reconstruction</title>
  <rect width="300" height="250" fill="#fff"/>
  <defs>
    <style>
      .axis { stroke: #111111; stroke-width: 1.05; fill: none; stroke-linecap: square; }
      .line { stroke: #111111; stroke-width: 2.35; fill: none; stroke-linecap: square; stroke-linejoin: miter; }
      .arrowhead { fill: #111111; stroke: none; }
      .dot { fill: #111111; stroke: none; }
      .label { font-family: "Times New Roman", Times, serif; font-size: 12.50px; fill: #111111; font-weight: 500; }
      .math { font-style: italic; }
      .sub { font-size: 8.50px; baseline-shift: sub; }
    </style>
  </defs>
  <g transform="translate(0.00 0.00)">
    <line class="axis" x1="36.00" y1="58.00" x2="36.00" y2="238.00"/>
    <line class="axis" x1="14.00" y1="216.00" x2="258.00" y2="216.00"/>
    <line class="line" x1="36.00" y1="216.00" x2="125.00" y2="59.00"/>
    <polygon class="arrowhead" points="125.00,59.00 123.94,66.45 119.16,63.73"/>
    <line class="line" x1="36.00" y1="216.00" x2="186.00" y2="125.00"/>
    <polygon class="arrowhead" points="186.00,125.00 181.44,130.98 178.59,126.28"/>
    <line class="line" x1="186.00" y1="125.00" x2="125.00" y2="59.00"/>
    <polygon class="arrowhead" points="125.00,59.00 131.77,62.27 127.73,66.01"/>
    <circle class="dot" cx="125.00" cy="59.00" r="3.30"/>
    <circle class="dot" cx="186.00" cy="125.00" r="3.30"/>
    <text class="label math" x="27.00" y="230.00">O</text>
    <text class="label math" x="121.00" y="45.00">i</text>
    <text class="label math" x="68.00" y="128.00">r<tspan class="sub">i</tspan></text>
    <text class="label math" x="125.00" y="181.00">R</text>
    <text class="label math" x="163.00" y="92.00">r&#8242;<tspan class="sub">i</tspan></text>
    <text class="label" x="201.00" y="123.00">Center</text>
    <text class="label" x="201.00" y="137.00">of mass</text>
  </g>
</svg>
