<svg xmlns="http://www.w3.org/2000/svg" width="180" height="250" viewBox="0 0 180 250"><rect width="180" height="250" fill="#fff"/><defs><style>
.line{stroke:#111;stroke-width:2.4;fill:none;stroke-linecap:square;stroke-linejoin:miter}.dash{stroke:#111;stroke-width:1.2;fill:none;stroke-linecap:square}.thin{stroke:#111;stroke-width:1.2;fill:none;stroke-linecap:square}.glyph{stroke:#111;stroke-width:0.9;fill:none;stroke-linecap:square}.arrowhead{fill:#111;stroke:none}.dot{fill:#111;stroke:none}
</style></defs><g>
<line class="dash" x1="23" y1="11" x2="23" y2="24"/><line class="dash" x1="23" y1="27" x2="23" y2="40"/><line class="dash" x1="23" y1="44" x2="23" y2="58"/><line class="dash" x1="23" y1="61" x2="23" y2="74"/><line class="dash" x1="23" y1="78" x2="23" y2="90"/><line class="dash" x1="23" y1="94" x2="23" y2="107"/><line class="dash" x1="23" y1="110" x2="23" y2="123"/><line class="dash" x1="23" y1="126" x2="23" y2="136"/>
<line class="dash" x1="131" y1="116" x2="131" y2="124"/><line class="dash" x1="131" y1="128" x2="131" y2="140"/><line class="dash" x1="131" y1="144" x2="131" y2="154"/><line class="dash" x1="131" y1="158" x2="131" y2="167"/><line class="dash" x1="131" y1="171" x2="131" y2="180"/><line class="dash" x1="131" y1="184" x2="131" y2="193"/><line class="dash" x1="131" y1="197" x2="131" y2="206"/><line class="dash" x1="131" y1="209" x2="131" y2="219"/><line class="dash" x1="131" y1="223" x2="131" y2="232"/><line class="dash" x1="131" y1="235" x2="131" y2="239"/>
<line class="line" x1="23" y1="11" x2="133" y2="113"/><line class="line" x1="133" y1="113" x2="72" y2="240"/>
<circle class="dot" cx="133" cy="113" r="3.4"/><circle class="dot" cx="72" cy="240" r="3.4"/>
<path class="thin" d="M 23 56 C 32 57, 43 52, 52 43"/><polygon class="arrowhead" points="52.00,43.00 49.24,48.73 46.27,45.76"/>
<path class="thin" d="M 111 164 C 116 165, 123 166, 131 166"/><polygon class="arrowhead" points="123.00,166.00 116.76,167.23 117.36,163.07"/>
<ellipse class="glyph" cx="37.2" cy="62.0" rx="2.35" ry="4.20"/><line class="glyph" x1="35.2" y1="62.0" x2="39.2" y2="62.0"/><line class="glyph" x1="42.2" y1="65.0" x2="42.2" y2="71.0"/>
<ellipse class="glyph" cx="114.0" cy="170.5" rx="2.45" ry="4.55"/><line class="glyph" x1="111.8" y1="170.5" x2="116.2" y2="170.5"/><line class="glyph" x1="119.0" y1="173.0" x2="121.0" y2="173.0"/><line class="glyph" x1="121.0" y1="173.0" x2="119.0" y2="177.0"/><line class="glyph" x1="119.0" y1="177.0" x2="121.0" y2="177.0"/>
</g></svg>